<?xml version="1.0" standalone="no"?>
<!DOCTYPE svg PUBLIC "-//W3C//DTD SVG 20010904//EN"
 "http://www.w3.org/TR/2001/REC-SVG-20010904/DTD/svg10.dtd">
<svg version="1.0" xmlns="http://www.w3.org/2000/svg"
 width="250.000000pt" height="250.000000pt" viewBox="0 0 250.000000 250.000000"
 preserveAspectRatio="xMidYMid meet">
<metadata>
Created by potrace 1.16, written by Peter Selinger 2001-2019
</metadata>
<g transform="translate(0.000000,250.000000) scale(0.100000,-0.100000)"
fill="#000000" stroke="none">
<path d="M1230 1745 c-6 -20 -27 -65 -46 -102 -33 -62 -38 -91 -12 -65 15 15
132 16 159 2 17 -10 18 -8 8 17 -6 16 -21 46 -33 68 -13 22 -29 57 -35 78 -16
46 -26 47 -41 2z"/>
<path d="M1174 1468 c-4 -6 -2 -14 4 -16 16 -5 15 -21 -4 -57 -21 -40 -84
-196 -84 -209 -1 -6 -14 -38 -30 -71 -15 -33 -27 -62 -25 -64 2 -2 16 6 32 17
16 11 61 24 106 31 94 13 217 -1 260 -31 16 -11 30 -19 32 -17 2 2 -10 31 -25
64 -16 33 -29 65 -30 71 0 13 -63 169 -84 209 -19 36 -20 52 -4 57 6 2 8 10 4
16 -4 7 -34 12 -76 12 -42 0 -72 -5 -76 -12z"/>
<path d="M1818 1459 c-35 -18 -52 -49 -28 -49 6 0 10 -11 10 -24 0 -28 24 -51
45 -42 9 3 15 18 15 41 0 20 4 34 9 31 19 -12 4 -68 -25 -91 -25 -20 -27 -25
-15 -39 7 -9 24 -16 36 -16 13 0 31 -3 40 -6 14 -6 13 -8 -4 -21 -16 -10 -26
-11 -41 -3 -16 9 -20 8 -20 -6 0 -9 8 -23 18 -30 16 -13 16 -13 -1 -14 -14 0
-17 -8 -15 -45 1 -38 4 -45 22 -45 20 0 19 -1 -5 -23 -37 -32 -34 -68 9 -79
47 -13 41 -32 -8 -24 -37 6 -41 4 -50 -20 -7 -18 -7 -30 0 -39 8 -9 5 -14 -10
-18 -12 -3 -20 -13 -20 -26 0 -12 -5 -21 -10 -21 -6 0 -16 -12 -23 -27 -6 -16
-18 -34 -25 -42 -8 -8 -11 -24 -7 -39 5 -22 4 -24 -10 -12 -20 16 -33 5 -19
-17 16 -25 63 -58 71 -49 4 4 1 16 -6 27 -12 20 -11 20 17 14 21 -4 31 -2 35
9 4 10 -4 16 -29 20 -25 5 -34 12 -34 27 0 19 1 19 29 -2 23 -17 32 -19 50
-10 22 12 37 53 26 71 -4 7 0 10 11 8 13 -2 18 2 16 15 -2 9 2 17 9 17 6 0 9
8 6 20 -3 11 0 18 7 17 6 -1 11 7 11 18 1 11 7 33 15 49 13 26 13 30 -9 47
l-23 19 27 0 c33 0 29 22 -6 30 l-24 6 28 7 c15 4 27 12 27 17 0 6 0 13 0 18
1 4 -14 10 -32 13 l-33 6 33 2 c30 1 32 3 32 36 0 26 -4 35 -17 35 -15 0 -15
2 1 19 19 21 15 53 -12 83 -12 14 -12 20 -2 33 9 10 9 19 2 28 -5 6 -12 23
-14 36 -5 36 -32 49 -56 27 -11 -9 -23 -13 -26 -8 -3 5 8 15 24 22 17 7 30 19
30 26 0 18 -7 17 -52 -7z"/>
<path d="M617 1446 c-3 -8 8 -20 29 -29 46 -22 47 -49 2 -36 -52 14 -56 12
-67 -41 -14 -66 -14 -68 7 -73 14 -4 14 -6 -5 -12 -18 -6 -23 -15 -23 -41 0
-25 4 -34 17 -34 15 0 15 -1 0 -18 -10 -10 -17 -24 -17 -30 0 -7 7 -12 17 -12
15 0 15 -1 0 -18 -22 -24 -22 -56 0 -77 11 -12 13 -19 5 -24 -14 -8 3 -81 18
-81 5 0 7 -7 4 -15 -8 -19 22 -65 41 -65 11 0 13 -8 9 -29 -5 -22 0 -35 17
-52 13 -13 24 -28 24 -33 0 -20 24 -16 54 9 29 25 42 55 23 55 -4 0 -13 14
-19 31 -7 17 -20 33 -31 35 -13 4 -17 12 -14 32 2 19 -3 34 -18 47 -18 16 -26
17 -51 8 -24 -9 -29 -9 -29 3 0 8 0 17 0 22 0 4 13 11 30 15 27 7 44 37 20 37
-6 0 -5 10 2 25 9 19 8 29 -5 49 -12 18 -13 26 -4 30 8 3 6 9 -7 20 -17 14
-17 16 -3 22 19 7 22 45 7 75 -8 15 -7 19 3 19 9 0 20 22 30 58 8 31 21 71 28
89 13 32 5 59 -10 35 -6 -10 -15 -9 -43 3 -30 12 -37 12 -41 1z"/>
<path d="M776 1316 c-17 -27 -9 -115 10 -123 8 -3 21 0 29 7 12 10 18 10 31
-1 12 -9 20 -10 33 -2 11 7 23 8 32 2 24 -15 29 -10 29 32 0 39 -1 41 -25 35
-22 -6 -25 -3 -25 23 0 36 -8 42 -61 45 -32 3 -43 -1 -53 -18z"/>
<path d="M1578 1318 c0 -7 -2 -26 -2 -43 -1 -16 -5 -40 -10 -52 -7 -23 -6 -23
83 -23 83 0 108 8 81 25 -5 3 -10 28 -10 56 l0 49 -70 0 c-49 0 -70 -4 -72
-12z"/>
<path d="M1144 1081 c-40 -7 -94 -35 -94 -48 0 -4 7 -14 15 -23 14 -16 13 -18
-12 -24 -24 -5 -36 -23 -85 -124 -32 -64 -58 -121 -58 -125 0 -4 8 -7 18 -7
11 0 13 3 5 8 -16 10 95 229 119 236 10 2 18 2 18 -1 0 -2 -25 -50 -56 -105
-30 -55 -54 -101 -52 -103 2 -1 17 4 33 11 19 8 23 13 13 14 -10 0 -18 3 -18
6 0 4 23 49 51 100 l50 94 42 0 c23 0 59 -9 80 -20 l37 -20 37 20 c21 11 57
20 80 20 l42 0 50 -94 c28 -51 51 -96 51 -100 0 -3 -8 -6 -17 -6 -11 -1 -7 -6
12 -14 17 -7 32 -12 33 -10 2 1 -21 47 -52 102 -31 55 -56 102 -56 105 0 3 8
3 18 0 14 -3 86 -129 131 -227 2 -4 -5 -6 -15 -3 -43 12 -129 19 -119 9 11
-11 145 -23 145 -13 0 3 -26 59 -57 123 -50 101 -62 119 -86 124 -26 6 -27 8
-11 25 35 39 -25 69 -154 74 -53 2 -116 1 -138 -4z"/>
<path d="M771 696 c-36 -37 -26 -62 12 -29 l22 18 -18 -22 c-25 -29 -12 -51
15 -26 20 18 20 18 14 -14 -8 -35 7 -52 29 -33 11 9 12 7 8 -9 -6 -22 6 -28
23 -11 17 17 41 1 48 -31 7 -36 47 -59 71 -39 13 10 15 9 15 -9 0 -24 18 -28
26 -6 9 22 21 18 28 -9 6 -25 51 -42 62 -24 4 6 10 5 15 -3 8 -11 12 -10 24 5
12 16 15 17 15 4 0 -17 43 -33 48 -18 5 13 52 13 52 0 0 -5 5 -10 10 -10 6 0
10 8 10 17 0 13 3 14 12 5 17 -17 48 -15 70 5 11 9 18 11 18 5 0 -7 5 -12 11
-12 8 0 9 15 4 48 -7 47 -24 77 -31 57 -3 -6 -20 -9 -39 -7 -40 5 -56 -18 -37
-49 8 -12 8 -20 1 -25 -6 -3 -11 -4 -12 -3 -2 2 -10 21 -20 42 -15 33 -20 37
-32 27 -8 -7 -15 -18 -15 -24 -1 -6 -7 -24 -14 -41 -12 -30 -13 -30 -12 19 1
57 -16 70 -38 29 l-15 -28 -1 28 c0 15 -6 28 -12 28 -23 2 -33 5 -61 17 -36
15 -47 15 -48 0 0 -7 -4 -3 -9 10 -6 14 -21 25 -40 28 -16 4 -30 10 -30 14 0
5 -16 18 -35 30 -29 18 -38 20 -50 10 -13 -10 -15 -8 -15 14 0 27 -20 56 -37
56 -5 0 -24 -15 -42 -34z"/>
<path d="M546 535 c-39 -40 0 -119 68 -137 l45 -12 -20 -24 c-10 -14 -19 -30
-19 -36 0 -6 5 -3 11 7 12 21 54 22 91 3 25 -13 28 -13 34 7 6 20 7 20 21 1
11 -15 15 -16 22 -5 5 8 14 10 22 6 34 -20 -3 8 -57 43 -32 21 -84 61 -114 88
-87 78 -85 77 -104 59z"/>
<path d="M1849 477 c-47 -40 -101 -83 -121 -95 -28 -17 -35 -27 -31 -43 l6
-22 17 23 17 23 6 -22 c5 -20 7 -20 34 -6 34 18 74 19 93 3 7 -7 3 0 -9 17
l-22 29 45 13 c70 21 109 99 68 136 -17 16 -23 13 -103 -56z"/>
</g>
</svg>
